<?xml version="1.0" standalone="no"?><!DOCTYPE svg PUBLIC "-//W3C//DTD SVG 1.1//EN" "http://www.w3.org/Graphics/SVG/1.1/DTD/svg11.dtd"><svg t="1587805037102" class="icon" viewBox="0 0 1267 1024" version="1.1" xmlns="http://www.w3.org/2000/svg" p-id="636" xmlns:xlink="http://www.w3.org/1999/xlink" width="247.4609375" height="200"><defs><style type="text/css"></style></defs><path d="M45.675002 22.803262m57.042395 0l1027.242446 0q57.042394 0 57.042394 57.042394l0 0.068479q0 57.042394-57.042394 57.042394l-1027.242446 0q-57.042394 0-57.042395-57.042394l0-0.068479q0-57.042394 57.042395-57.042394Z" p-id="637" fill="#707070"></path><path d="M45.675002 422.305457m57.042395 0l1027.242446 0q57.042394 0 57.042394 57.042395l0 0.068478q0 57.042394-57.042394 57.042394l-1027.242446 0q-57.042394 0-57.042395-57.042394l0-0.068478q0-57.042394 57.042395-57.042395Z" p-id="638" fill="#707070"></path><path d="M45.675002 821.739174m57.042395 0l1027.242446 0q57.042394 0 57.042394 57.042394l0 0.068479q0 57.042394-57.042394 57.042394l-1027.242446 0q-57.042394 0-57.042395-57.042394l0-0.068479q0-57.042394 57.042395-57.042394Z" p-id="639" fill="#707070"></path></svg>